HIERARCHY
ROOT Hips
{
  OFFSET 1.44925e-005 102.336 -0.101585
  CHANNELS 6 Xposition Yposition Zposition Zrotation Xrotation Yrotation
  JOINT LeftUpLeg
  {
    OFFSET 8.9458 -8.66707 0.101652
    CHANNELS 3 Zrotation Xrotation Yrotation
    JOINT LeftLeg
    {
      OFFSET 0 -44.4227 1.3727
      CHANNELS 3 Zrotation Xrotation Yrotation
      JOINT LeftFoot
      {
        OFFSET -0.253549 -42.0924 -1.46059
        CHANNELS 3 Zrotation Xrotation Yrotation
        JOINT LeftToes
        {
          OFFSET -0.04 -4.41509 8.4991
          CHANNELS 3 Zrotation Xrotation Yrotation
          End Site
          {
            OFFSET 0.08 -0.047448 9.77979
          }
        }
      }
    }
  }
  JOINT Spine
  {
    OFFSET 0 11.8905 0
    CHANNELS 3 Zrotation Xrotation Yrotation
    JOINT Spine1
    {
      OFFSET 0 25.6574 0.127663
      CHANNELS 3 Zrotation Xrotation Yrotation
      JOINT RightShoulder
      {
        OFFSET -8.99 -0.362252 -0.22
        CHANNELS 3 Zrotation Xrotation Yrotation
        JOINT RightArm
        {
          OFFSET -10.2827 -0.00338 0.322123
          CHANNELS 3 Zrotation Xrotation Yrotation
          JOINT RightForeArm
          {
            OFFSET -26.364 0.099144 -1.42434
            CHANNELS 3 Zrotation Xrotation Yrotation
            JOINT RightHand
            {
              OFFSET -22.0324 0.085362 1.02216
              CHANNELS 3 Zrotation Xrotation Yrotation
              End Site
              {
                OFFSET -13.3284 -0.6 1.50291
              }
            }
          }
        }
      }
      JOINT LeftShoulder1
      {
        OFFSET 8.99 -0.362252 -0.22
        CHANNELS 3 Zrotation Xrotation Yrotation
        JOINT LeftArm
        {
          OFFSET 10.2827 -0.00337999 0.322123
          CHANNELS 3 Zrotation Xrotation Yrotation
          JOINT LeftForeArm
          {
            OFFSET 26.2597 0.099144 -1.42434
            CHANNELS 3 Zrotation Xrotation Yrotation
            JOINT LeftHand
            {
              OFFSET 22.0902 0.085362 1.02216
              CHANNELS 3 Zrotation Xrotation Yrotation
              End Site
              {
                OFFSET 13.419 -0.6 1.50291
              }
            }
          }
        }
      }
      JOINT Head
      {
        OFFSET 0 8.73416 0.011341
        CHANNELS 3 Zrotation Xrotation Yrotation
        End Site
        {
          OFFSET -0.29 12.7742 2.51395
        }
      }
    }
  }
  JOINT RightUpLeg
  {
    OFFSET -8.9458 -8.66707 0.101652
    CHANNELS 3 Zrotation Xrotation Yrotation
    JOINT RightLeg
    {
      OFFSET 0 -44.4227 1.3727
      CHANNELS 3 Zrotation Xrotation Yrotation
      JOINT RightFoot
      {
        OFFSET 0.253549 -42.0924 -1.46059
        CHANNELS 3 Zrotation Xrotation Yrotation
        JOINT RightToes
        {
          OFFSET 0.04 -4.41509 8.4991
          CHANNELS 3 Zrotation Xrotation Yrotation
          End Site
          {
            OFFSET -0.08 -0.137448 9.77979
          }
        }
      }
    }
  }
}
MOTION
Frames:	19
Frame Time:	0.0333333
-30.351 11.1396 -9.5245 80.5735 -1.00952 -86.3706 1.19437 0.811237 -4.92915 1.02986 30.9693 16.7446 -24.2367 -19.4251 -2.48709 -1.33613e-009 8.75225e-006 -1.47416e-008 -0.0998974 1.13744 -0.496399 0.619058 -1.96706 -0.631202 9.74 0.520832 -1.72512 34.1278 -21.3913 -17.261 -20.8144 0.969564 135.516 -47.796 3.08486 10.3165 0.221195 0.262019 0.323417 -28.9309 -13.0382 8.23933 29.1592 -8.65423 -135.2 5.82328 9.61819 -0.917488 -0.592135 -53.12 -8.70047 -0.102558 6.18846 -14.4999 -0.109011 23.7219 -4.2278 31.8151 -24.7036 4.73947 0.0462048 0.000530889 0.662642 
-30.3515 11.1398 -9.52448 80.5701 -0.989968 -86.3036 1.23785 0.787021 -4.95337 1.02642 31.0156 16.6376 -24.2 -19.458 -2.49027 -1.33613e-009 8.75225e-006 -1.47416e-008 -0.00843306 0.614004 -0.81304 0.383443 -0.942861 -0.92538 8.91559 0.449311 -2.09246 36.0719 -20.7982 -15.6105 -21.4078 0.742288 135.044 -48.0082 3.02152 10.3807 0.513888 0.190743 1.13483 -29.3538 -13.0633 7.99584 29.2473 -8.8849 -135.28 5.82328 9.61819 -0.917488 0.036391 -53.7546 -7.91983 -0.0696332 6.23569 -14.59 -0.0873893 23.6559 -4.24596 31.7299 -24.7708 4.74533 0.0462048 0.000530889 0.662642 
-30.3285 11.1591 -9.52799 80.445 -1.00146 -86.2339 1.18749 0.904779 -5.21613 1.03264 31.045 16.7944 -24.215 -19.5195 -2.50534 -1.33613e-009 8.75225e-006 -1.47416e-008 -0.248363 -0.907793 -1.29027 0.647443 1.92864 -1.47536 6.6458 0.290531 -2.99845 40.0306 -19.6258 -11.96 -22.5665 0.526269 133.92 -48.5224 2.89836 10.4653 1.6237 0.0500162 2.79853 -31.0033 -13.2739 6.76064 29.5131 -8.97449 -135.097 5.82328 9.61819 -0.917488 1.29325 -54.9836 -6.22173 -0.0599471 6.3868 -14.7504 -0.0843076 23.641 -4.21617 31.6174 -24.8733 4.75697 0.0462048 0.000530889 0.662642 
-30.272 11.2222 -9.5394 79.9557 -0.991364 -86.2459 1.2275 1.3844 -5.20257 1.03328 31.0993 16.8015 -24.1988 -19.6769 -2.53786 -1.33613e-009 8.75225e-006 -1.47416e-008 -0.667177 -2.35317 -1.43807 1.267 4.10129 -1.73598 4.49956 0.176384 -3.82447 42.7303 -18.1094 -8.77002 -23.6477 1.03415 132.159 -49.3517 2.68085 10.6367 2.79883 -0.0337886 4.05599 -33.0928 -12.6664 4.29067 30.5048 -8.20232 -133.664 5.82328 9.61819 -0.917488 2.07378 -55.2694 -4.98413 -0.0111833 6.83447 -14.7907 -0.108662 23.7497 -4.16443 31.4984 -24.9811 4.76886 0.0462048 0.000530889 0.662642 
-30.1947 11.3378 -9.55615 79.0601 -0.977473 -86.2341 1.37408 2.24757 -4.92908 1.02443 31.1844 16.5492 -24.1382 -19.8989 -2.57943 -1.33613e-009 8.75225e-006 -1.47416e-008 -0.889252 -3.1956 -1.30847 1.51056 4.3763 -1.60875 3.28104 0.152729 -4.06825 43.5613 -16.497 -6.83208 -24.5715 2.32293 129.727 -50.1945 2.40061 10.929 4.02843 -0.038013 4.26301 -34.9299 -11.2058 1.13561 31.9913 -6.24476 -130.955 5.82328 9.61819 -0.917488 2.03124 -54.4932 -4.84053 0.0511608 7.66738 -14.8132 -0.135876 23.9193 -4.05037 31.3702 -25.1378 4.79336 0.0462048 0.000530889 0.662642 
-30.1005 11.5048 -9.56063 77.8692 -1.0361 -86.0043 1.42343 3.37318 -5.12553 1.02206 31.3009 16.4557 -24.1306 -20.1167 -2.62605 -1.33613e-009 8.75225e-006 -1.47416e-008 -0.893946 -4.04438 -1.37604 1.07673 4.17277 -1.54383 2.46415 0.168978 -3.9571 44.3811 -14.7211 -4.5262 -25.6782 4.15932 126.449 -50.7405 2.17352 11.2068 5.44443 -0.0192624 4.02907 -36.4619 -9.68421 -2.26923 33.4299 -3.44849 -127.605 5.82328 9.61819 -0.917488 1.93461 -53.8351 -5.00444 0.015131 8.81531 -15.2334 -0.170959 24.1431 -3.64872 31.2808 -25.4162 4.85989 0.0462048 0.000530889 0.662642 
-29.953 11.7738 -9.54591 76.3395 -1.13691 -85.7529 1.38432 4.76124 -5.78615 1.02839 31.5397 16.5553 -24.2265 -20.3955 -2.69831 -1.33613e-009 8.75225e-006 -1.47416e-008 -0.904312 -5.25901 -1.67064 0.440389 4.72445 -1.69949 1.35938 0.183291 -3.85555 46.0778 -12.8385 -0.761827 -26.8903 6.63902 122.213 -51.0627 2.06637 11.3106 6.73026 -0.0106604 3.92441 -37.8494 -8.45053 -6.0083 34.7289 -0.113564 -123.822 5.82328 9.61819 -0.917488 2.04984 -53.5896 -4.93515 -0.115179 10.1839 -15.9698 -0.27165 24.6031 -2.84758 31.3066 -25.8034 4.97833 0.0462048 0.000530889 0.662642 
-29.7097 12.2268 -9.52406 74.3307 -1.17096 -85.9091 1.50822 6.49336 -5.88678 1.02005 31.9883 16.2241 -24.3042 -20.8488 -2.8073 -1.33613e-009 8.75225e-006 -1.47416e-008 -0.983681 -6.35076 -1.77136 0.144827 5.56024 -1.7397 0.000859586 0.1963 -3.74956 47.8351 -10.9863 3.82207 -27.6447 9.94923 117.021 -51.5516 1.99136 11.2838 7.63815 -0.00441544 3.74555 -39.2538 -7.19683 -10.2848 35.9883 3.9617 -119.24 5.82328 9.61819 -0.917488 1.92962 -52.8035 -4.88015 -0.245805 11.7266 -16.2201 -0.404835 25.4341 -2.02584 31.4737 -26.2308 5.13461 0.0462048 0.000530889 0.662642 
-29.3676 12.9077 -9.48962 71.858 -1.12005 -86.4868 1.80913 8.52785 -5.14 0.993121 32.6093 15.3379 -24.223 -21.414 -2.92152 -1.33613e-009 8.75225e-006 -1.47416e-008 -0.981121 -6.80978 -1.56236 0.144722 6.01693 -1.52541 -1.32674 0.216082 -3.51742 49.1087 -9.18085 8.55257 -27.5341 13.8922 110.884 -52.4414 1.82422 11.2963 8.29436 0.00289399 3.24995 -40.7336 -5.79753 -14.9639 36.9144 8.86533 -113.697 5.82328 9.61819 -0.917488 1.44659 -51.0435 -5.01637 -0.356754 13.4441 -15.5005 -0.439965 26.4935 -1.6649 31.7387 -26.6787 5.31694 0.0462048 0.000530889 0.662642 
-28.9424 13.8291 -9.41516 69.1669 -1.09512 -87.0271 1.93671 10.5691 -4.67361 0.980376 33.3657 14.763 -24.0613 -21.9046 -3.00813 -1.33613e-009 8.75225e-006 -1.47416e-008 -0.901326 -6.71151 -1.35886 0.158034 6.3341 -1.32734 -2.53487 0.233167 -3.24827 50.1441 -7.40549 13.6259 -26.5659 17.962 103.882 -53.5523 1.57824 11.3821 8.7622 0.00667688 2.65665 -42.1386 -4.55756 -19.7821 37.0666 14.1545 -107.44 5.82328 9.61819 -0.917488 0.973891 -49.0596 -5.17972 -0.511776 15.1963 -14.443 -0.435794 27.6231 -1.58704 32.0536 -27.1821 5.52845 0.0462048 0.000530889 0.662642 
-28.4269 15.0287 -9.29285 66.5736 -1.14987 -87.2299 1.71818 12.1592 -5.24327 1.00294 34.3783 15.022 -24.0244 -22.2959 -3.08889 -1.33613e-009 8.75225e-006 -1.47416e-008 -0.904065 -6.2439 -1.34585 0.237099 6.70707 -1.35256 -3.50214 0.240421 -3.07365 50.9417 -5.72674 19.1616 -24.9511 21.7441 96.1922 -54.6051 1.35994 11.4274 8.8208 0.00967628 2.19081 -43.2318 -3.58669 -24.6863 36.3551 19.3797 -100.623 5.82328 9.61819 -0.917488 0.660119 -47.556 -5.3224 -0.713469 16.5957 -13.5854 -0.443062 28.947 -1.64256 32.3933 -27.7299 5.76227 0.0462048 0.000530889 0.662642 
-27.8029 16.5509 -9.13929 64.3258 -1.14669 -87.2462 1.45245 12.9324 -6.12138 1.03489 35.7991 15.4475 -24.1185 -22.7495 -3.20167 -1.33613e-009 8.75225e-006 -1.47416e-008 -0.912719 -5.41158 -1.38625 0.597547 6.77679 -1.46941 -4.02724 0.245984 -2.91903 51.0955 -4.22192 24.7372 -22.8209 25.051 87.9285 -55.6057 1.19247 11.3895 8.32266 0.0201591 1.78235 -43.7812 -2.60447 -29.7657 34.7576 24.3896 -93.0171 5.82328 9.61819 -0.917488 0.347073 -46.4328 -5.50602 -0.837514 17.2069 -12.8947 -0.460824 30.6727 -1.88728 32.7046 -28.261 5.98943 0.0462048 0.000530889 0.662642 
-27.0735 18.3707 -8.9623 62.5604 -0.97671 -87.3002 1.42578 12.7841 -6.47535 1.05146 37.6014 15.312 -24.1337 -23.3568 -3.33789 -1.33613e-009 8.75225e-006 -1.47416e-008 -0.657984 -4.3105 -1.37045 1.13438 6.37163 -1.48943 -4.11261 0.26033 -2.61447 50.4732 -2.89957 30.0534 -20.1261 27.7715 79.1281 -56.7034 0.999972 11.362 7.4185 0.0421442 1.3486 -43.4665 -1.40045 -35.0559 31.9136 28.9763 -84.3021 5.82328 9.61819 -0.917488 0.013856 -45.3968 -5.62833 -0.816457 16.8682 -12.2199 -0.489567 32.7748 -2.32336 32.8846 -28.7873 6.19171 0.0462048 0.000530889 0.662642 
-26.2384 20.39 -8.76606 61.2823 -0.768562 -87.3967 1.46091 11.8314 -6.54922 1.06233 39.6729 14.8337 -23.9981 -24.0392 -3.46823 -1.33613e-009 8.75225e-006 -1.47416e-008 -0.162706 -3.1188 -1.34532 1.57032 5.73192 -1.42671 -3.86364 0.286297 -2.14123 49.2241 -1.74382 35.203 -16.7975 29.7255 69.8832 -57.8245 0.747725 11.4315 6.25441 0.0762756 0.935214 -41.8938 -0.0315425 -40.5129 27.4164 32.6231 -74.3383 5.82328 9.61819 -0.917488 -0.217296 -44.4784 -5.54913 -0.789205 15.7118 -11.5257 -0.524448 35.144 -2.81865 32.8703 -29.4325 6.39238 0.0462048 0.000530889 0.662642 
-25.2719 22.5101 -8.58411 60.356 -0.688844 -87.4661 1.28183 10.287 -6.80246 1.0825 42.0004 14.4417 -23.889 -24.7049 -3.59793 -1.33613e-009 8.75225e-006 -1.47416e-008 0.223996 -1.80687 -1.31931 1.89775 4.98857 -1.37549 -3.15388 0.323723 -1.633 47.3205 -0.787323 40.2674 -13.0147 30.7035 60.5285 -58.7501 0.497665 11.5573 4.71057 0.128286 0.536922 -38.8474 1.34924 -46.0197 21.4439 34.6658 -63.4475 5.82328 9.61819 -0.917488 -0.396247 -43.8145 -5.34399 -0.906749 13.9678 -10.7989 -0.561077 37.8043 -3.22991 32.7202 -30.2528 6.61901 0.0462048 0.000530889 0.662642 
-24.1697 24.675 -8.45396 59.569 -0.693672 -87.5242 1.0132 8.40104 -7.06104 1.10943 44.5817 14.0466 -23.9131 -25.3198 -3.7376 -1.33613e-009 8.75225e-006 -1.47416e-008 0.375394 -0.207753 -1.24487 2.26878 4.10374 -1.33584 -1.80845 0.377227 -1.17481 44.6788 -0.101661 45.1706 -9.1507 30.6375 51.4749 -59.4409 0.327965 11.6166 2.66797 0.209746 0.0739839 -34.4988 2.55681 -51.4023 14.8616 34.7272 -52.4581 5.82328 9.61819 -0.917488 -0.688696 -43.446 -5.2076 -1.07992 11.9043 -10.0527 -0.600604 40.7217 -3.55753 32.5678 -31.1082 6.85497 0.0462048 0.000530889 0.662642 
-22.9665 26.845 -8.36797 58.7774 -0.676685 -87.5964 0.862053 6.38678 -7.04589 1.14136 47.3276 13.5223 -23.9429 -25.8343 -3.85663 -1.33613e-009 8.75225e-006 -1.47416e-008 0.504626 1.71216 -1.14295 2.59852 3.1699 -1.27244 -0.00805943 0.453335 -0.710351 41.4929 0.276965 49.8655 -5.50264 29.5706 42.9475 -59.9627 0.259361 11.5567 0.317181 0.324672 -0.468018 -29.1882 3.42211 -56.5208 8.57402 32.8063 -42.1667 5.82328 9.61819 -0.917488 -1.09292 -43.3829 -5.21742 -1.18828 9.75394 -9.40469 -0.645986 43.7468 -3.87223 32.5424 -31.8717 7.09091 0.0462048 0.000530889 0.662642 
-21.7097 28.9593 -8.28902 58.0173 -0.671501 -87.6335 0.717663 4.30803 -6.9306 1.18788 50.1092 13.1045 -23.8744 -26.1805 -3.92162 -1.33613e-009 8.75225e-006 -1.47416e-008 0.762154 3.77121 -1.0907 2.6992 2.30389 -1.20079 1.89729 0.5537 -0.181892 37.9276 0.423782 54.3446 -2.25205 27.5405 35.0605 -60.2203 0.258685 11.4704 -2.1023 0.469198 -1.04924 -22.7785 3.99755 -61.3205 3.01295 28.819 -32.997 5.82328 9.61819 -0.917488 -1.50686 -43.5737 -5.34229 -1.30761 7.59995 -9.0243 -0.69657 46.7303 -4.17258 32.7268 -32.5448 7.35055 0.0462048 0.000530889 0.662642 
-20.4166 30.948 -8.21247 57.4174 -0.752201 -87.6064 0.415288 2.08937 -6.91448 1.25505 52.8953 12.9367 -23.8147 -26.401 -3.95999 -1.33613e-009 8.75225e-006 -1.47416e-008 1.03277 5.75892 -1.07765 2.63672 1.48659 -1.13024 3.75125 0.667699 0.326204 33.6579 0.622414 58.5347 0.474942 24.4115 27.9983 -60.0932 0.279464 11.4779 -4.64925 0.64725 -1.64851 -14.8548 4.3241 -65.776 -1.69509 22.7872 -25.3108 5.82328 9.61819 -0.917488 -1.9498 -43.8649 -5.5646 -1.56291 5.36349 -8.98128 -0.751238 49.6616 -4.40283 33.1138 -33.1456 7.6417 0.0462048 0.000530889 0.662642 
